<svg width="448" height="360" viewBox="0 0 448 360" fill="none" xmlns="http://www.w3.org/2000/svg">
<g clip-path="url(#clip0_2238:1253)">
<path d="M442.865 101.939L427.986 96.5256L413.572 101.939L400.578 96.5256L389.159 101.939L376.166 96.5256L365.931 101.939L353.72 96.5256L342.301 101.939L329.307 96.5256L315.977 101.939L304.504 96.5256L291.118 101.939L278.525 96.5256L266.314 101.939L257.272 96.5256V277.109L434.15 278.357C435.292 278.366 436.424 278.148 437.48 277.717C438.537 277.285 439.498 276.649 440.308 275.844C441.118 275.039 441.761 274.082 442.2 273.027C442.639 271.973 442.865 270.842 442.865 269.699V101.939Z" fill="#7C25FF" stroke="#001E2B" stroke-linecap="round" stroke-linejoin="round"/>
<path d="M433.203 278.357C430.986 278.357 428.86 277.476 427.292 275.907C425.725 274.338 424.844 272.21 424.844 269.991V214.678C424.844 213.541 424.62 212.414 424.185 211.363C423.749 210.312 423.111 209.357 422.307 208.553C421.503 207.749 420.548 207.111 419.498 206.677C418.447 206.242 417.321 206.019 416.185 206.02H246.272C245.136 206.019 244.01 206.242 242.959 206.677C241.909 207.111 240.954 207.749 240.15 208.553C239.346 209.357 238.707 210.312 238.272 211.363C237.837 212.414 237.613 213.541 237.613 214.678V277.692L433.203 278.357Z" fill="#001E2B"/>
<path d="M406.697 206.02H229.755C227.461 206.02 225.26 206.933 223.638 208.556C222.016 210.18 221.104 212.382 221.104 214.678V357.129H406.697V214.678C406.697 213.541 406.921 212.414 407.356 211.363C407.791 210.312 408.429 209.357 409.234 208.553C410.038 207.749 410.992 207.111 412.043 206.677C413.094 206.242 414.219 206.019 415.356 206.02H406.697Z" fill="#F2C5EE" stroke="#001E2B" stroke-miterlimit="10"/>
<path d="M243.204 242.649H381.52" stroke="#001E2B" stroke-linecap="round" stroke-linejoin="round"/>
<path d="M243.204 268.87H381.52" stroke="#001E2B" stroke-linecap="round" stroke-linejoin="round"/>
<path d="M243.204 295.1H381.52" stroke="#001E2B" stroke-linecap="round" stroke-linejoin="round"/>
<path d="M243.204 321.321H381.52" stroke="#001E2B" stroke-linecap="round" stroke-linejoin="round"/>
<path d="M245.18 188.212H353.018C355.528 188.209 357.935 187.209 359.709 185.432C361.483 183.655 362.479 181.245 362.479 178.733V93.7367L353.829 99.1503L341.7 93.7367L330.281 99.1503L326.694 166.967L245.699 173.784L245.18 188.212Z" fill="#001E2B"/>
<path d="M368.908 45.6973H45.401C44.4606 45.6973 43.6982 46.4603 43.6982 47.4016V190.964C43.6982 191.905 44.4606 192.668 45.401 192.668H368.908C369.848 192.668 370.611 191.905 370.611 190.964V47.4016C370.611 46.4603 369.848 45.6973 368.908 45.6973Z" fill="#001E2B" stroke="#001E2B" stroke-linecap="round" stroke-linejoin="round"/>
<path d="M360.021 37.686H36.5138C35.5734 37.686 34.811 38.4491 34.811 39.3903V182.953C34.811 183.894 35.5734 184.657 36.5138 184.657H360.021C360.961 184.657 361.724 183.894 361.724 182.953V39.3903C361.724 38.4491 360.961 37.686 360.021 37.686Z" fill="white" stroke="#001E2B" stroke-linecap="round" stroke-linejoin="round"/>
<path d="M122.918 50.2542H62.0553C58.7274 50.2542 55.5359 51.5773 53.1828 53.9326C50.8296 56.2879 49.5078 59.4823 49.5078 62.8131V159.521C49.5078 162.852 50.8296 166.046 53.1828 168.402C55.5359 170.757 58.7274 172.08 62.0553 172.08H122.918" stroke="#001E2B" stroke-linecap="round" stroke-linejoin="round"/>
<path d="M273.617 172.116H334.488C337.816 172.116 341.008 170.793 343.361 168.438C345.714 166.083 347.036 162.888 347.036 159.557V62.8131C347.036 59.4823 345.714 56.2879 343.361 53.9326C341.008 51.5773 337.816 50.2542 334.488 50.2542H273.617" stroke="#001E2B" stroke-linecap="round" stroke-linejoin="round"/>
<path d="M235.1 64.153H169.867C161.715 64.153 155.106 70.7674 155.106 78.9266V144.228C155.106 152.387 161.715 159.002 169.867 159.002H235.1C243.252 159.002 249.86 152.387 249.86 144.228V78.9266C249.86 70.7674 243.252 64.153 235.1 64.153Z" fill="#00ED64" stroke="#001E2B" stroke-linecap="round" stroke-linejoin="round"/>
<path d="M205.706 85.5342C213.055 86.4456 217.781 91.1849 218.536 98.5489C218.55 98.7511 218.522 98.9539 218.454 99.1448C218.386 99.3357 218.28 99.5104 218.141 99.6583C218.003 99.8062 217.836 99.9241 217.65 100.004C217.464 100.085 217.264 100.126 217.061 100.126H216.834C216.462 100.118 216.105 99.9736 215.833 99.7196C215.561 99.4657 215.392 99.1203 215.358 98.7494C214.621 92.0962 210.35 88.2957 202.856 88.2957C195.362 88.2957 190.473 92.1145 190.473 98.5398C190.473 106.679 198.395 108.264 203.721 109.476C211.143 111.208 219.638 113.66 219.638 123.822C219.638 132.106 214.056 136.745 205.725 137.629C205.358 137.661 205.016 137.828 204.766 138.097C204.515 138.366 204.373 138.719 204.368 139.088V143.462C204.369 143.657 204.332 143.85 204.258 144.03C204.185 144.21 204.076 144.374 203.939 144.512C203.802 144.65 203.639 144.76 203.459 144.835C203.28 144.909 203.087 144.948 202.893 144.948C202.501 144.945 202.125 144.788 201.849 144.51C201.573 144.231 201.418 143.855 201.418 143.462V139.088C201.413 138.72 201.273 138.367 201.024 138.096C200.775 137.826 200.436 137.656 200.07 137.62C191.456 136.627 186.029 130.994 185.355 123.238C185.332 123.031 185.353 122.821 185.417 122.622C185.48 122.423 185.585 122.239 185.725 122.084C185.864 121.928 186.034 121.803 186.225 121.718C186.415 121.633 186.622 121.589 186.83 121.589H187.04C187.418 121.595 187.78 121.744 188.054 122.006C188.327 122.268 188.492 122.623 188.515 123.002C189.143 129.974 194.443 134.85 203.293 134.85C211.352 134.85 216.469 130.812 216.469 123.913C216.469 116.13 209.986 114.325 203.648 112.812C195.508 110.862 187.304 108.629 187.304 98.6765C187.304 91.2122 191.857 86.6097 200.052 85.5524C200.411 85.5106 200.743 85.3397 200.986 85.0715C201.228 84.8033 201.366 84.4561 201.372 84.0942V79.683C201.372 79.2914 201.528 78.9159 201.804 78.639C202.081 78.3621 202.456 78.2066 202.847 78.2066C203.041 78.2054 203.234 78.2427 203.413 78.3165C203.593 78.3903 203.756 78.499 203.893 78.6363C204.03 78.7737 204.139 78.937 204.212 79.1166C204.286 79.2963 204.323 79.4888 204.322 79.683V84.076C204.328 84.4485 204.474 84.8051 204.73 85.0752C204.987 85.3453 205.335 85.5091 205.706 85.5342Z" fill="#001E2B"/>
<path d="M193.551 296.093L150.827 289.987L166.907 330.079L193.551 296.093Z" fill="white" stroke="#001E2B" stroke-linecap="round" stroke-linejoin="round"/>
<path d="M193.55 296.093L159.186 309.91L167.226 329.951L193.55 296.093Z" fill="#001E2B"/>
<path d="M70.0498 237.208V278.613C70.0498 287.095 73.4159 295.231 79.4078 301.23C85.3997 307.229 93.5268 310.6 102.002 310.602H151.391" stroke="#001E2B" stroke-miterlimit="10" stroke-dasharray="2 2"/>
<path d="M70.041 188.494V224.449" stroke="#001E2B" stroke-miterlimit="10" stroke-dasharray="2 2"/>
<path d="M144.944 263.73L149.106 273.053C151.4 278.202 169.794 274.985 190.191 265.871C210.587 256.757 225.248 245.192 222.971 240.043L218.773 230.719L144.944 263.73Z" fill="#00ED64" stroke="#001E2B" stroke-linecap="round" stroke-linejoin="round"/>
<path d="M186.007 256.422C206.398 247.305 221.066 235.742 218.769 230.594C216.472 225.447 198.079 228.665 177.688 237.782C157.296 246.899 142.628 258.463 144.925 263.61C147.222 268.757 165.615 265.539 186.007 256.422Z" fill="#E3FCF7" stroke="#001E2B" stroke-linecap="round" stroke-linejoin="round"/>
<path d="M149.734 266.035L152.548 272.333" stroke="#001E2B" stroke-linecap="round" stroke-linejoin="round"/>
<path d="M153.622 266.3L154.697 268.706" stroke="#001E2B" stroke-linecap="round" stroke-linejoin="round"/>
<path d="M215.414 238.229L218.637 245.447" stroke="#001E2B" stroke-linecap="round" stroke-linejoin="round"/>
<path d="M217.216 236.315L219.283 240.945" stroke="#001E2B" stroke-linecap="round" stroke-linejoin="round"/>
<path d="M166.534 273.846L163.975 268.113" stroke="#001E2B" stroke-linecap="round" stroke-linejoin="round"/>
<path d="M169.138 270.246L170.358 272.971" stroke="#001E2B" stroke-linecap="round" stroke-linejoin="round"/>
<path d="M162.336 272.397L163.302 274.557" stroke="#001E2B" stroke-linecap="round" stroke-linejoin="round"/>
<path d="M184.428 252.861C199.025 246.334 209.633 238.298 208.121 234.911C206.609 231.524 193.551 234.068 178.954 240.595C164.357 247.121 153.749 255.157 155.261 258.544C156.773 261.932 169.831 259.387 184.428 252.861Z" fill="#00ED64" stroke="#001E2B" stroke-linecap="round" stroke-linejoin="round"/>
<path d="M88.6073 37.2213L75.1946 37.2122L34.1279 66.2765L34.3374 78.3342" fill="black"/>
<path d="M34.3374 78.3341C44.0076 81.5605 56.4279 80.1569 67.6825 73.686C82.7251 65.0096 90.9294 49.9898 88.6256 37.2303" fill="black"/>
<path d="M71.8893 16.0497C61.9458 8.32104 45.3462 8.12965 30.7133 16.56C16.0805 24.9904 7.9492 39.4724 9.62464 51.9585L8.14941 52.8061L12.411 60.2066C20.3057 73.9321 41.3123 76.6116 59.3234 66.2491C77.3344 55.8866 85.5205 36.319 77.6259 22.5934L73.3645 15.2021L71.8893 16.0497Z" fill="#F2C5EE" stroke="#001E2B" stroke-miterlimit="10"/>
<path d="M55.0602 58.8714C73.0692 48.4854 81.2654 28.943 73.3669 15.2223C65.4683 1.50163 44.466 -1.2017 26.4569 9.18426C8.44791 19.5702 0.251687 39.1126 8.15024 52.8333C16.0488 66.554 37.0511 69.2573 55.0602 58.8714Z" fill="#E3FCF7" stroke="#001E2B" stroke-linecap="round" stroke-linejoin="round"/>
<path d="M51.8861 52.616C65.882 44.5445 72.2515 29.3568 66.113 18.6934C59.9744 8.02999 43.6523 5.9288 29.6564 14.0003C15.6605 22.0719 9.29076 37.2597 15.4293 47.9231C21.5679 58.5865 37.8902 60.6876 51.8861 52.616Z" fill="#F2C5EE" stroke="#001E2B" stroke-miterlimit="10"/>
<path d="M20.0508 63.1686L22.3181 67.1149" stroke="#001E2B" stroke-linecap="round" stroke-linejoin="round"/>
<path d="M28.3369 71.2618L25.9785 67.1787" stroke="#001E2B" stroke-linecap="round" stroke-linejoin="round"/>
<path d="M72.208 44.8678L75.4952 50.5913" stroke="#001E2B" stroke-linecap="round" stroke-linejoin="round"/>
<path d="M70.3325 50.1174L72.7637 54.3463" stroke="#001E2B" stroke-linecap="round" stroke-linejoin="round"/>
<path d="M76.7153 41.368L78.5183 44.4941" stroke="#001E2B" stroke-linecap="round" stroke-linejoin="round"/>
<path d="M31.551 36.0547L31.4419 34.7149L33.3542 33.6122C33.1293 32.7722 33.0523 31.8994 33.1265 31.0329C33.1974 30.1834 33.4001 29.35 33.7274 28.563C34.0614 27.7661 34.5296 27.0324 35.1115 26.3939C35.7161 25.7183 36.4266 25.1458 37.215 24.6987C37.9213 24.2905 38.6815 23.9837 39.4732 23.7873C40.2322 23.6011 41.0148 23.5304 41.795 23.5777C42.5616 23.6318 43.3164 23.7976 44.0351 24.0699C44.7739 24.353 45.4673 24.743 46.093 25.2273L44.2719 26.2754C43.375 25.7181 42.3409 25.4215 41.2852 25.4187C40.1719 25.4313 39.083 25.7463 38.1347 26.3301C37.5502 26.6538 37.0213 27.0692 36.5683 27.5605C36.1451 28.014 35.795 28.5305 35.5303 29.0916C35.2703 29.6351 35.0981 30.2166 35.0204 30.8142C34.9358 31.4188 34.9358 32.0323 35.0204 32.637L43.0425 28.0071L43.1699 29.3377L35.3665 33.84C35.4211 34.0041 35.494 34.1681 35.5668 34.3321L35.8218 34.8152C35.9982 35.1133 36.1895 35.4023 36.3953 35.681L43.3431 31.68L43.4796 32.9742L37.2421 36.5742C38.1795 37.3886 39.3482 37.8889 40.584 38.005C41.7887 38.078 42.9905 37.8214 44.0605 37.2626C45.1305 36.7039 46.0281 35.8641 46.6575 34.8334C47.1839 33.9203 47.4486 32.8797 47.4224 31.8258L49.2436 30.7777C49.4129 31.9391 49.3136 33.124 48.9537 34.241C48.5938 35.3581 47.9828 36.3776 47.1674 37.2212C45.9648 38.4801 44.409 39.3445 42.7055 39.7003C41.8598 39.8667 40.9932 39.8974 40.1379 39.7914C38.4137 39.5705 36.812 38.7817 35.585 37.5493L33.1992 38.9255L33.1083 37.6131L34.7836 36.6379C34.6741 36.5105 34.5767 36.3732 34.4924 36.2279L34.2283 35.763C34.0476 35.4513 33.8863 35.1287 33.7457 34.797L31.551 36.0547Z" fill="black"/>
</g>
<defs>
<clipPath id="clip0_2238:1253">
<rect width="448" height="360" fill="white"/>
</clipPath>
</defs>
</svg>
