<svg width="500" height="500" viewBox="0 0 500 500" fill="none" xmlns="http://www.w3.org/2000/svg">
<path d="M148.888 75.9332C148.887 89.4433 143.519 102.4 133.965 111.952C124.411 121.505 111.454 126.871 97.9442 126.871V127.242C84.4329 127.242 71.4751 132.61 61.9212 142.164C52.3673 151.718 47 164.675 47 178.187L49.5308 280.44C49.53 287.13 50.847 293.754 53.4065 299.935C55.966 306.116 59.7179 311.732 64.448 316.463C69.1781 321.193 74.7937 324.946 80.9742 327.506C87.1547 330.067 93.779 331.384 100.469 331.384V331.57C113.98 331.57 126.938 336.937 136.492 346.491C146.046 356.045 151.413 369.003 151.413 382.514C151.415 396.024 156.783 408.981 166.336 418.533C175.89 428.086 188.847 433.452 202.357 433.452H349.311C376.097 433.243 401.715 422.456 420.582 403.441C439.449 384.426 450.036 358.725 450.036 331.938C450.036 305.151 439.449 279.45 420.582 260.435C401.715 241.421 376.097 230.633 349.311 230.424L301.894 229.688C295.204 229.688 288.58 228.37 282.399 225.81C276.218 223.25 270.602 219.497 265.871 214.767C261.141 210.036 257.388 204.42 254.828 198.239C252.268 192.058 250.95 185.434 250.95 178.744V77.9442C250.95 64.434 245.584 51.4771 236.031 41.9234C226.479 32.3697 213.522 27.0016 200.012 27C171.882 27.0248 148.888 47.7972 148.888 75.9332Z" fill="#00684A"/>
<path d="M163.795 357.763V376.623C163.795 396.734 203.948 413.039 253.481 413.039C303.014 413.039 343.167 396.734 343.167 376.623V357.763H163.795Z" fill="#001E2B" stroke="#001E2B" stroke-width="0.75" stroke-miterlimit="10"/>
<path d="M163.795 297.302V367.62C163.795 387.73 203.948 404.035 253.481 404.035C303.014 404.035 343.167 387.73 343.167 367.62V297.302C343.167 277.191 303.014 260.893 253.481 260.893C203.948 260.893 163.795 277.191 163.795 297.302Z" fill="#00ED64" stroke="#231F20" stroke-width="0.75" stroke-miterlimit="10"/>
<path d="M343.167 297.302V367.62C343.167 387.731 303.014 404.035 253.481 404.035C203.948 404.035 163.795 387.731 163.795 367.62V297.302" stroke="#231F20" stroke-miterlimit="10"/>
<path d="M343.167 333.234C343.167 353.344 303.014 369.643 253.481 369.643C203.948 369.643 163.795 353.344 163.795 333.234" stroke="#231F20" stroke-miterlimit="10"/>
<path d="M325.711 275.719V389.19C336.682 383.151 343.167 375.689 343.167 367.607V297.302C343.167 289.226 336.682 281.758 325.711 275.719Z" fill="#001E2B" stroke="#001E2B" stroke-miterlimit="10"/>
<path d="M253.475 333.723C303.007 333.723 343.161 317.419 343.161 297.308C343.161 277.196 303.007 260.893 253.475 260.893C203.942 260.893 163.789 277.196 163.789 297.308C163.789 317.419 203.942 333.723 253.475 333.723Z" fill="white" stroke="#231F20" stroke-miterlimit="10"/>
<path d="M149.6 245.652H119.577" stroke="#B1FF05" stroke-miterlimit="10"/>
<path d="M90.7603 253.876V241.568C94.4729 241.531 97.2761 240.428 99.1695 238.258C101.063 236.088 102.004 231.208 101.991 223.618C101.991 217.842 102.197 213.56 102.61 210.772C102.946 208.19 104.02 205.759 105.704 203.773C107.406 201.851 109.608 200.44 112.065 199.696C114.655 198.871 118.329 198.458 123.085 198.458H125.808V210.716C120.858 210.716 117.892 211.228 116.91 212.251C115.928 213.274 115.406 215.274 115.344 218.253C115.142 226.458 114.876 231.792 114.546 234.254C114.22 236.719 113.458 239.106 112.294 241.302C111.11 243.542 108.913 245.687 105.704 247.738C108.47 249.308 110.763 251.593 112.343 254.352C113.729 256.922 114.542 260.614 114.781 265.429L115.549 280.354C115.672 281.019 115.931 281.651 116.31 282.211C116.689 282.771 117.18 283.247 117.752 283.608C118.915 284.343 121.582 284.71 125.752 284.71V296.993H123.11C117.64 296.993 113.418 296.374 110.444 295.136C107.587 293.994 105.276 291.802 103.984 289.01C102.655 286.168 101.989 281.587 101.985 275.267C101.985 268.287 101.746 263.826 101.267 261.883C100.771 259.904 99.8216 258.068 98.495 256.518C97.1337 254.893 94.5554 254.012 90.7603 253.876Z" fill="#001E2B" stroke="#001E2B" stroke-linecap="round" stroke-linejoin="round"/>
<path d="M86.6021 249.736V237.429C90.3147 237.4 93.1178 236.298 95.0113 234.124C96.9047 231.95 97.8453 227.068 97.8329 219.478C97.7427 215.187 97.9495 210.894 98.4517 206.632C98.7869 204.05 99.8613 201.619 101.546 199.633C103.249 197.714 105.451 196.302 107.907 195.556C110.506 194.731 114.181 194.318 118.933 194.318H121.65V206.576C116.699 206.576 113.734 207.09 112.752 208.117C111.78 209.138 111.254 211.143 111.186 214.113C110.984 222.318 110.72 227.652 110.394 230.115C110.067 232.582 109.302 234.97 108.136 237.169C106.96 239.4 104.763 241.545 101.546 243.604C104.338 245.156 106.659 247.435 108.259 250.2C109.637 252.762 110.448 256.454 110.691 261.276L111.465 276.195C111.585 276.862 111.843 277.497 112.222 278.058C112.601 278.62 113.094 279.096 113.668 279.456C114.831 280.195 117.498 280.562 121.668 280.558V292.865H119.001C113.531 292.865 109.309 292.246 106.335 291.009C103.474 289.874 101.16 287.68 99.8749 284.883C98.5383 282.041 97.87 277.459 97.87 271.14C97.87 264.164 97.6308 259.703 97.1523 257.755C96.6617 255.778 95.7144 253.942 94.3863 252.397C93.0085 250.776 90.4137 249.889 86.6021 249.736Z" fill="#B1FF05" stroke="#001E2B" stroke-miterlimit="10"/>
<path d="M357.943 245.652H387.967" stroke="#B1FF05" stroke-miterlimit="10"/>
<path d="M416.505 256.512C415.178 258.061 414.229 259.898 413.733 261.876C413.258 263.819 413.019 268.281 413.015 275.261C413.015 281.585 412.349 286.166 411.016 289.004C409.724 291.796 407.413 293.987 404.556 295.13C401.578 296.367 397.356 296.986 391.89 296.986H389.223V284.672C393.393 284.672 396.058 284.305 397.217 283.571C397.791 283.211 398.283 282.735 398.663 282.175C399.043 281.615 399.303 280.982 399.426 280.316L400.194 265.391C400.437 260.569 401.25 256.877 402.632 254.315C404.212 251.555 406.505 249.27 409.271 247.7C406.062 245.638 403.865 243.492 402.681 241.265C401.518 239.067 400.753 236.681 400.423 234.217C400.101 231.742 399.837 226.408 399.63 218.215C399.564 215.237 399.043 213.236 398.065 212.213C397.087 211.19 394.128 210.685 389.186 210.697V198.439H391.908C396.66 198.439 400.334 198.851 402.929 199.677C405.386 200.421 407.588 201.832 409.29 203.754C410.974 205.74 412.048 208.17 412.384 210.753C412.817 213.537 413.023 217.819 413.002 223.599C413.002 231.193 413.943 236.073 415.824 238.239C417.705 240.405 420.508 241.508 424.233 241.549V253.857C420.45 254.005 417.874 254.89 416.505 256.512Z" fill="#001E2B" stroke="#001E2B" stroke-linecap="round" stroke-linejoin="round"/>
<path d="M412.594 252.378C411.266 253.924 410.319 255.759 409.828 257.737C409.346 259.688 409.106 264.15 409.111 271.121C409.111 277.445 408.442 282.026 407.106 284.864C405.821 287.662 403.507 289.856 400.646 290.99C397.675 292.228 393.453 292.847 387.979 292.847H385.312V280.558C389.483 280.558 392.15 280.191 393.313 279.456C393.887 279.096 394.379 278.62 394.759 278.058C395.138 277.497 395.396 276.862 395.516 276.195L396.289 261.276C396.529 256.458 397.339 252.766 398.721 250.2C400.301 247.437 402.597 245.152 405.367 243.586C402.149 241.523 399.953 239.378 398.777 237.15C397.61 234.952 396.846 232.563 396.518 230.096C396.197 227.621 395.933 222.287 395.726 214.094C395.658 211.124 395.108 209.144 394.161 208.098C393.214 207.053 390.219 206.558 385.263 206.558V194.275H387.979C392.731 194.275 396.407 194.687 399.006 195.512C401.461 196.261 403.662 197.672 405.367 199.59C407.051 201.576 408.126 204.006 408.461 206.589C408.963 210.851 409.17 215.143 409.08 219.435C409.08 227.025 410.018 231.907 411.895 234.081C413.772 236.255 416.577 237.356 420.311 237.385V249.693C416.532 249.874 413.96 250.77 412.594 252.378Z" fill="#B1FF05" stroke="#001E2B" stroke-miterlimit="10"/>
<path d="M236.879 286.993V299.987C236.879 303.7 244.304 306.726 253.481 306.726C262.657 306.726 270.083 303.706 270.083 299.987V286.993C270.083 283.28 262.657 280.248 253.481 280.248C244.304 280.248 236.879 283.268 236.879 286.993Z" fill="#B1FF05" stroke="#001E2B" stroke-miterlimit="10"/>
<path d="M261.457 281.078L258.295 306.448C265.102 305.613 270.083 303.038 270.083 300V287.006C270.083 284.444 266.599 282.223 261.457 281.078Z" fill="#001E2B" stroke="#001E2B" stroke-miterlimit="10"/>
<path d="M343.167 193.83C343.167 173.719 303.014 157.414 253.481 157.414C203.948 157.414 163.795 173.719 163.795 193.83" stroke="#231F20" stroke-miterlimit="10"/>
<path d="M163.795 187.642V257.954C163.795 278.064 203.948 294.369 253.481 294.369C303.014 294.369 343.167 278.064 343.167 257.954V187.642C343.167 167.531 303.014 151.227 253.481 151.227C203.948 151.227 163.795 167.531 163.795 187.642Z" fill="#00ED64" stroke="#231F20" stroke-width="0.75" stroke-miterlimit="10"/>
<path d="M325.711 166.052V279.543C336.682 273.503 343.167 266.035 343.167 257.953V187.642C343.167 179.56 336.682 172.092 325.711 166.052Z" fill="#001E2B" stroke="#001E2B" stroke-miterlimit="10"/>
<path d="M253.475 224.057C303.007 224.057 343.161 207.753 343.161 187.642C343.161 167.53 303.007 151.227 253.475 151.227C203.942 151.227 163.789 167.53 163.789 187.642C163.789 207.753 203.942 224.057 253.475 224.057Z" fill="white" stroke="#231F20" stroke-miterlimit="10"/>
<path d="M343.167 187.642V257.954C343.167 278.064 303.014 294.369 253.481 294.369C203.948 294.369 163.795 278.064 163.795 257.954V187.642" stroke="#231F20" stroke-miterlimit="10"/>
<path d="M236.879 177.327V190.321C236.879 194.034 244.304 197.06 253.481 197.06C262.657 197.06 270.083 194.046 270.083 190.321V177.327C270.083 173.614 262.657 170.588 253.481 170.588C244.304 170.588 236.879 173.602 236.879 177.327Z" fill="#B1FF05" stroke="#001E2B" stroke-miterlimit="10"/>
<path d="M261.457 171.417L258.295 196.787C265.102 195.945 270.083 193.377 270.083 190.333V177.338C270.083 174.777 266.599 172.561 261.457 171.417Z" fill="#001E2B" stroke="#001E2B" stroke-miterlimit="10"/>
<path d="M163.795 77.9753V148.294C163.795 168.404 203.948 184.703 253.481 184.703C303.014 184.703 343.167 168.404 343.167 148.294V77.9753C343.167 57.8649 303.014 41.5601 253.481 41.5601C203.948 41.5601 163.795 57.8649 163.795 77.9753Z" fill="#00ED64" stroke="#231F20" stroke-width="0.75" stroke-miterlimit="10"/>
<path d="M343.167 77.9753C343.167 57.8649 303.014 41.5601 253.481 41.5601C203.948 41.5601 163.795 57.8649 163.795 77.9753" stroke="#231F20" stroke-miterlimit="10"/>
<path d="M343.167 77.9749V148.293C343.167 168.403 303.014 184.702 253.481 184.702C203.948 184.702 163.795 168.403 163.795 148.293V77.9749" stroke="#231F20" stroke-miterlimit="10"/>
<path d="M343.167 113.134C343.167 133.244 303.014 149.543 253.481 149.543C203.948 149.543 163.795 133.244 163.795 113.134" stroke="#231F20" stroke-miterlimit="10"/>
<path d="M343.167 222.794C343.167 242.905 303.014 259.21 253.481 259.21C203.948 259.21 163.795 242.905 163.795 222.794" stroke="#231F20" stroke-miterlimit="10"/>
<path d="M325.711 56.3921V169.876C336.682 163.837 343.167 156.368 343.167 148.293V77.9751C343.167 69.9001 336.682 62.4314 325.711 56.3921Z" fill="#001E2B" stroke="#001E2B" stroke-miterlimit="10"/>
<path d="M253.475 114.391C303.007 114.391 343.161 98.0869 343.161 77.9753C343.161 57.8637 303.007 41.5601 253.475 41.5601C203.942 41.5601 163.789 57.8637 163.789 77.9753C163.789 98.0869 203.942 114.391 253.475 114.391Z" fill="white" stroke="#231F20" stroke-miterlimit="10"/>
<path d="M155.788 132.948V143.461" stroke="#B1FF05" stroke-miterlimit="10"/>
<path d="M155.788 85.3201V127.329" stroke="#B1FF05" stroke-miterlimit="10"/>
<path d="M352.3 322.381V311.868" stroke="#B1FF05" stroke-miterlimit="10"/>
<path d="M352.3 370.002V327.999" stroke="#B1FF05" stroke-miterlimit="10"/>
<path d="M196.361 473.128C202.595 473.128 207.648 468.075 207.648 461.842C207.648 455.608 202.595 450.555 196.361 450.555C190.128 450.555 185.075 455.608 185.075 461.842C185.075 468.075 190.128 473.128 196.361 473.128Z" fill="white" stroke="#001E2B" stroke-miterlimit="10"/>
<path d="M189.617 470.87C189.617 470.87 203.787 465.963 205.705 455.474C208.18 458.711 209.189 466.185 203.911 470.22C198.632 474.254 193.459 472.955 189.617 470.87Z" fill="#023430"/>
<path d="M369.558 63.8423L359.163 53.2426L364.162 37.2471L374.7 47.3889L369.558 63.8423Z" fill="#023430" stroke="#001E2B" stroke-miterlimit="10"/>
<path d="M369.595 63.8545L384.167 61.0514L389.167 45.0559L374.731 47.4011L369.595 63.8545Z" fill="white" stroke="#001E2B" stroke-miterlimit="10"/>
<path d="M378.543 35.0813L364.162 37.247L374.731 47.4012L389.167 45.056L378.543 35.0813Z" fill="white" stroke="#001E2B" stroke-miterlimit="10"/>
<path d="M360.53 406.888V443.093C360.53 453.445 381.203 461.842 406.709 461.842C432.216 461.842 452.889 453.445 452.889 443.093V406.888C452.889 396.529 432.209 388.139 406.709 388.139C381.21 388.139 360.53 396.529 360.53 406.888Z" fill="#00ED64" stroke="#231F20" stroke-width="0.75" stroke-miterlimit="10"/>
<path d="M452.92 406.888V443.093C452.92 453.445 432.24 461.842 406.74 461.842C381.24 461.842 360.561 453.445 360.561 443.093V406.888" stroke="#231F20" stroke-miterlimit="10"/>
<path d="M452.92 424.987C452.92 435.346 432.24 443.736 406.74 443.736C381.24 443.736 360.561 435.346 360.561 424.987" stroke="#231F20" stroke-miterlimit="10"/>
<path d="M443.898 395.768V454.206C449.547 451.112 452.889 447.251 452.889 443.068V406.888C452.92 402.723 449.547 398.881 443.898 395.768Z" fill="#001E2B" stroke="#001E2B" stroke-miterlimit="10"/>
<path d="M406.703 425.637C432.208 425.637 452.883 417.243 452.883 406.888C452.883 396.533 432.208 388.139 406.703 388.139C381.199 388.139 360.524 396.533 360.524 406.888C360.524 417.243 381.199 425.637 406.703 425.637Z" fill="white" stroke="#231F20" stroke-miterlimit="10"/>
<path d="M360.53 371.203V407.407C360.53 417.766 381.203 426.157 406.709 426.157C432.216 426.157 452.889 417.766 452.889 407.407V371.203C452.889 360.85 432.209 352.454 406.709 352.454C381.21 352.454 360.53 360.85 360.53 371.203Z" fill="#00ED64" stroke="#231F20" stroke-width="0.75" stroke-miterlimit="10"/>
<path d="M452.92 371.203V407.408C452.92 417.766 432.24 426.157 406.74 426.157C381.24 426.157 360.561 417.766 360.561 407.408V371.203" stroke="#231F20" stroke-miterlimit="10"/>
<path d="M452.92 389.309C452.92 399.661 432.24 408.058 406.74 408.058C381.24 408.058 360.561 399.661 360.561 389.309" stroke="#231F20" stroke-miterlimit="10"/>
<path d="M443.898 360.108V418.539C449.547 415.445 452.889 411.59 452.889 407.401V371.203C452.92 367.044 449.547 363.202 443.898 360.108Z" fill="#001E2B" stroke="#001E2B" stroke-miterlimit="10"/>
<path d="M406.703 389.952C432.208 389.952 452.883 381.557 452.883 371.203C452.883 360.848 432.208 352.454 406.703 352.454C381.199 352.454 360.524 360.848 360.524 371.203C360.524 381.557 381.199 389.952 406.703 389.952Z" fill="white" stroke="#231F20" stroke-miterlimit="10"/>
<path d="M360.53 335.32V371.525C360.53 381.883 381.203 390.274 406.709 390.274C432.216 390.274 452.889 381.883 452.889 371.525V335.32C452.889 324.968 432.209 316.571 406.709 316.571C381.21 316.571 360.53 324.968 360.53 335.32Z" fill="#00ED64" stroke="#231F20" stroke-width="0.75" stroke-miterlimit="10"/>
<path d="M452.92 335.32V371.525C452.92 381.883 432.24 390.274 406.74 390.274C381.24 390.274 360.561 381.883 360.561 371.525V335.32" stroke="#231F20" stroke-miterlimit="10"/>
<path d="M452.92 353.425C452.92 363.778 432.24 372.174 406.74 372.174C381.24 372.174 360.561 363.778 360.561 353.425" stroke="#231F20" stroke-miterlimit="10"/>
<path d="M443.898 324.219V382.656C449.547 379.563 452.889 375.701 452.889 371.518V335.32C452.92 331.161 449.547 327.313 443.898 324.219Z" fill="#001E2B" stroke="#001E2B" stroke-miterlimit="10"/>
<path d="M406.703 354.075C432.208 354.075 452.883 345.681 452.883 335.326C452.883 324.971 432.208 316.577 406.703 316.577C381.199 316.577 360.524 324.971 360.524 335.326C360.524 345.681 381.199 354.075 406.703 354.075Z" fill="white" stroke="#231F20" stroke-miterlimit="10"/>
<path d="M57.9834 406.888V443.093C57.9834 453.445 78.6568 461.842 104.163 461.842C129.669 461.842 150.343 453.445 150.343 443.093V406.888C150.343 396.529 129.663 388.139 104.163 388.139C78.663 388.139 57.9834 396.529 57.9834 406.888Z" fill="#00ED64" stroke="#231F20" stroke-width="0.75" stroke-miterlimit="10"/>
<path d="M150.336 406.888V443.093C150.336 453.445 129.657 461.842 104.157 461.842C78.6568 461.842 57.9771 453.445 57.9771 443.093V406.888" stroke="#231F20" stroke-miterlimit="10"/>
<path d="M150.336 424.987C150.336 435.346 129.657 443.736 104.157 443.736C78.6568 443.736 57.9771 435.346 57.9771 424.987" stroke="#231F20" stroke-miterlimit="10"/>
<path d="M141.352 395.768V454.206C147.001 451.112 150.342 447.251 150.342 443.068V406.888C150.336 402.723 147.001 398.881 141.352 395.768Z" fill="#001E2B" stroke="#001E2B" stroke-miterlimit="10"/>
<path d="M104.157 425.637C129.661 425.637 150.336 417.243 150.336 406.888C150.336 396.533 129.661 388.139 104.157 388.139C78.6524 388.139 57.9771 396.533 57.9771 406.888C57.9771 417.243 78.6524 425.637 104.157 425.637Z" fill="white" stroke="#231F20" stroke-miterlimit="10"/>
<path d="M57.9834 371.203V407.407C57.9834 417.766 78.6568 426.157 104.163 426.157C129.669 426.157 150.343 417.766 150.343 407.407V371.203C150.343 360.85 129.663 352.454 104.163 352.454C78.663 352.454 57.9834 360.85 57.9834 371.203Z" fill="#00ED64" stroke="#231F20" stroke-width="0.75" stroke-miterlimit="10"/>
<path d="M150.336 371.203V407.408C150.336 417.766 129.657 426.157 104.157 426.157C78.6568 426.157 57.9771 417.766 57.9771 407.408V371.203" stroke="#231F20" stroke-miterlimit="10"/>
<path d="M150.336 389.309C150.336 399.661 129.657 408.058 104.157 408.058C78.6568 408.058 57.9771 399.661 57.9771 389.309" stroke="#231F20" stroke-miterlimit="10"/>
<path d="M141.352 360.108V418.539C147.001 415.445 150.342 411.59 150.342 407.401V371.203C150.336 367.044 147.001 363.202 141.352 360.108Z" fill="#001E2B" stroke="#001E2B" stroke-miterlimit="10"/>
<path d="M104.157 389.952C129.661 389.952 150.336 381.557 150.336 371.203C150.336 360.848 129.661 352.454 104.157 352.454C78.6524 352.454 57.9771 360.848 57.9771 371.203C57.9771 381.557 78.6524 389.952 104.157 389.952Z" fill="white" stroke="#231F20" stroke-miterlimit="10"/>
<path d="M57.9834 335.32V371.525C57.9834 381.883 78.6568 390.274 104.163 390.274C129.669 390.274 150.343 381.883 150.343 371.525V335.32C150.343 324.968 129.663 316.571 104.163 316.571C78.663 316.571 57.9834 324.968 57.9834 335.32Z" fill="#00ED64" stroke="#231F20" stroke-width="0.75" stroke-miterlimit="10"/>
<path d="M150.336 335.32V371.525C150.336 381.883 129.657 390.274 104.157 390.274C78.6568 390.274 57.9771 381.883 57.9771 371.525V335.32" stroke="#231F20" stroke-miterlimit="10"/>
<path d="M150.336 353.425C150.336 363.778 129.657 372.174 104.157 372.174C78.6568 372.174 57.9771 363.778 57.9771 353.425" stroke="#231F20" stroke-miterlimit="10"/>
<path d="M141.352 324.219V382.656C147.001 379.563 150.342 375.701 150.342 371.518V335.32C150.336 331.161 147.001 327.313 141.352 324.219Z" fill="#001E2B" stroke="#001E2B" stroke-miterlimit="10"/>
<path d="M104.157 354.075C129.661 354.075 150.336 345.681 150.336 335.326C150.336 324.971 129.661 316.577 104.157 316.577C78.6524 316.577 57.9771 324.971 57.9771 335.326C57.9771 345.681 78.6524 354.075 104.157 354.075Z" fill="white" stroke="#231F20" stroke-miterlimit="10"/>
</svg>
